<svg aria-hidden="true" style="width:0;height:0;position:absolute;overflow:hidden" xmlns="http://www.w3.org/2000/svg"><defs><symbol id="icon-Vector-1" viewBox="0 0 32 32"><path d="M23.452 4.471h5.961a1.494 1.494 0 0 1 1.491 1.49v23.843a1.49 1.49 0 0 1-1.491 1.491H2.589a1.49 1.49 0 0 1-1.49-1.491V5.961a1.486 1.486 0 0 1 1.49-1.49H8.55v-2.98h2.98v2.98h8.941v-2.98h2.98v2.98zm4.471 11.921H4.08v11.921h23.843V16.391zm-7.451-8.941h-8.941v2.98h-2.98v-2.98H4.08v5.961h23.843V7.451h-4.471v2.98h-2.98v-2.98zM7.06 19.373h2.98v2.981H7.06v-2.981zm7.451 0h2.98v2.981h-2.98v-2.981zm7.451 0h2.981v2.981h-2.981v-2.981z"/></symbol><symbol id="icon-Vector" viewBox="0 0 53 32"><path d="M6.267 0 0 6.089 26.667 32 53.334 6.089 47.067 0l-20.4 19.779L6.267 0z"/></symbol></defs></svg>