<svg aria-hidden="true" style="position: absolute; width: 0; height: 0; overflow: hidden;" version="1.1" xmlns="http://www.w3.org/2000/svg" xmlns:xlink="http://www.w3.org/1999/xlink">
<defs>
<symbol id="icon-Vector-1" viewBox="0 0 32 32">
<path  d="M23.452 4.471h5.961c0.395 0 0.774 0.157 1.054 0.436s0.437 0.659 0.437 1.054v23.843c0 0.395-0.157 0.774-0.437 1.054s-0.658 0.437-1.054 0.437h-26.824c-0.395 0-0.774-0.157-1.054-0.437s-0.436-0.658-0.436-1.054v-23.843c0-0.395 0.157-0.774 0.436-1.054s0.658-0.436 1.054-0.436h5.961v-2.98h2.98v2.98h8.941v-2.98h2.98v2.98zM27.923 16.392h-23.843v11.921h23.843v-11.922zM20.472 7.451h-8.941v2.98h-2.98v-2.98h-4.471v5.961h23.843v-5.961h-4.471v2.98h-2.98v-2.98zM7.060 19.373h2.98v2.981h-2.98v-2.981zM14.511 19.373h2.98v2.981h-2.98v-2.981zM21.962 19.373h2.981v2.981h-2.981v-2.981z"></path>
</symbol>
<symbol id="icon-Vector" viewBox="0 0 53 32">
<path   d="M6.267 0l-6.267 6.089 26.667 25.911 26.667-25.911-6.267-6.089-20.4 19.779-20.4-19.779z"></path>
</symbol>
</defs>
</svg>
